<?xml version="1.0" encoding="UTF-8"?>
<svg xmlns="http://www.w3.org/2000/svg" width="48" height="48" viewBox="0 0 48 48">
  <defs>
    <linearGradient id="screen" x1="0" y1="0" x2="0" y2="1">
      <stop offset="0" stop-color="#3f4754"/>
      <stop offset="1" stop-color="#202631"/>
    </linearGradient>
    <linearGradient id="spark" x1="0" y1="0" x2="1" y2="1">
      <stop offset="0" stop-color="#ffb86c"/>
      <stop offset="1" stop-color="#ff6b9d"/>
    </linearGradient>
  </defs>
  <rect x="3" y="5" width="42" height="34" rx="6" fill="#161b24"/>
  <rect x="6" y="8" width="36" height="28" rx="3" fill="url(#screen)"/>
  <circle cx="10" cy="12" r="1.5" fill="#ff6b6b"/>
  <circle cx="15" cy="12" r="1.5" fill="#ffd166"/>
  <circle cx="20" cy="12" r="1.5" fill="#6be39b"/>
  <path d="m12 20 6 5-6 5" fill="none" stroke="#f3f5f7" stroke-width="3" stroke-linecap="round" stroke-linejoin="round"/>
  <path d="M22 30h7" fill="none" stroke="#9da8b8" stroke-width="3" stroke-linecap="round"/>
  <path d="m36 21 1.5 4.5L42 27l-4.5 1.5L36 33l-1.5-4.5L30 27l4.5-1.5Z" fill="url(#spark)"/>
  <path d="m40 16 .8 2.2L43 19l-2.2.8L40 22l-.8-2.2L37 19l2.2-.8Z" fill="#ffcf70"/>
  <rect x="14" y="42" width="20" height="2" rx="1" fill="#161b24"/>
</svg>
